<?xml version="1.0" encoding="utf-8"?>
<!-- Generator: Adobe Illustrator 17.0.0, SVG Export Plug-In . SVG Version: 6.00 Build 0)  -->
<!DOCTYPE svg PUBLIC "-//W3C//DTD SVG 1.1//EN" "http://www.w3.org/Graphics/SVG/1.1/DTD/svg11.dtd">
<svg version="1.1" id="Слой_1" xmlns="http://www.w3.org/2000/svg" xmlns:xlink="http://www.w3.org/1999/xlink" x="0px" y="0px" viewbox="0 0 377 170" xml:space="preserve">
<path fill-rule="evenodd" clip-rule="evenodd" fill="#000000" d="M2.003,52.001l-1,48.994l-1,12.998v16.998l1,15.998
	c0,0-0.906,12.873-1,12.998c-0.094,0.125,1.656,3.562,2,4c0.344,0.437,2.031,2.656,3,3c0.969,0.344,10.999,1,10.999,1h21.997h34.996
	h39.995l72.991,1l31.996-1h34.996c0,0,27.663,0.083,27.996,0c0.333-0.083,40.995,1,40.995,1h31.996c0,0,11.249,0.031,11.999,0
	c0.75-0.031,6.687-1,6.999-1c0.312,0,1.437-1.469,2-2c0.563-0.531,0.844-1.687,1-2c0.156-0.313,0-4.999,0-4.999V139.99l-2-17.998
	l-1-19.998l2-31.996c0,0,1.219-21.545,1-21.997c-0.219-0.452,0-12.998,0-12.998l1-9.999c0,0,0.14-8.83,0-10.999
	c-0.14-2.169-0.275-3.229-1-4.999c-0.725-1.77-0.936-2.798-2-4c-1.063-1.202-3.999-2-3.999-2l-4.999-1l-18.998-1h-22.997h-30.996
	h-32.996l-35.995,1l-44.994,2l-62.992-3l-37.995-1H40.999H19.001h-4.999H9.003c0,0-2.593-0.156-4.999,1
	c-2.406,1.156-1.594,0.594-2,1s-1.062,1.156-1,1c0.063-0.156,1,27.997,1,27.997V52.001z"/>
</svg>
